# xmcd
# Copyright (C) 1995-1998 Ti Kan
#
# Track frame offsets:
#       150
#       26550
#       42150
#       69000
#       94275
#       117712
#       148575
#       165632
#       182100
#       214462
#       230550
#       257910
#
# Disc length: 3858 seconds
#
# Revision: 0
# Processed by: cddbd v1.5.2PL0 Copyright (c) Steve Scherf et al.
# Submitted via: CD-Import v1.0
#
DISCID=b10f100c
DTITLE=Ouizzz - Power Jazz
DYEAR=07
DGENRE=
TTITLE0=Ouizzz
TTITLE1=Vortex
TTITLE2=Chicken Swing
TTITLE3=700 Titres
TTITLE4=Kangoo
TTITLE5=Golf
TTITLE6=Se Mi Sbaglio
TTITLE7=Chepa
TTITLE8=L'attente
TTITLE9=Angel Card
TTITLE10=Famous Pizza
TTITLE11=Nevenebbia
EXTD=
EXTT0=
EXTT1=
EXTT2=
EXTT3=
EXTT4=
EXTT5=
EXTT6=
EXTT7=
EXTT8=
EXTT9=
EXTT10=
EXTT11=
PLAYORDER=
